<svg width="16" height="16" viewBox="0 0 16 16" fill="none" xmlns="http://www.w3.org/2000/svg">
<path d="M4.6665 14H11.3332" stroke="#00AD0C" stroke-width="1.16667" stroke-linecap="round" stroke-linejoin="round"/>
<path d="M8 14C9.5913 14 11.1174 13.3679 12.2426 12.2426C13.3679 11.1174 14 9.5913 14 8H2C2 9.5913 2.63214 11.1174 3.75736 12.2426C4.88258 13.3679 6.4087 14 8 14Z" stroke="#00AD0C" stroke-width="1.16667" stroke-linecap="round" stroke-linejoin="round"/>
<path d="M7.58659 7.9999C7.18284 8.00366 6.79259 7.85463 6.49411 7.5827C6.19564 7.31076 6.01102 6.93603 5.97728 6.53367C5.94354 6.13131 6.06317 5.73107 6.31219 5.41322C6.5612 5.09537 6.92118 4.88343 7.31993 4.8199C7.25609 4.53738 7.27013 4.24284 7.36056 3.96768C7.45099 3.69252 7.61442 3.44707 7.83341 3.2575C8.0524 3.06794 8.31874 2.94138 8.60401 2.89131C8.88929 2.84125 9.18281 2.86956 9.45326 2.97323C9.57168 2.78681 9.72742 2.62692 9.91066 2.50363C10.0939 2.38034 10.3007 2.29633 10.518 2.25688C10.7353 2.21742 10.9584 2.22339 11.1733 2.27439C11.3882 2.32539 11.5902 2.42033 11.7666 2.55323C12.0743 2.31138 12.46 2.1907 12.8507 2.21403C13.2414 2.23735 13.6099 2.40307 13.8867 2.67981C14.1634 2.95656 14.3291 3.32514 14.3525 3.71582C14.3758 4.10651 14.2551 4.49219 14.0133 4.7999C14.1638 4.99985 14.2653 5.23233 14.3097 5.47865C14.354 5.72497 14.34 5.97827 14.2687 6.21817C14.1973 6.45808 14.0707 6.6779 13.899 6.85999C13.7273 7.04207 13.5152 7.18132 13.2799 7.26656C13.3408 7.50652 13.3476 7.75698 13.2999 7.9999" stroke="#00AD0C" stroke-width="1.16667" stroke-linecap="round" stroke-linejoin="round"/>
<path d="M8.6665 7.99992L11.3332 5.33325" stroke="#00AD0C" stroke-width="1.16667" stroke-linecap="round" stroke-linejoin="round"/>
<path d="M7.26654 4.83331C6.90086 4.44349 6.42624 4.17287 5.90452 4.05673C5.38281 3.94058 4.8382 3.9843 4.34169 4.18218C3.84519 4.38007 3.41981 4.72294 3.121 5.1661C2.8222 5.60926 2.66383 6.13216 2.66654 6.66664C2.66654 7.15331 2.79987 7.60664 3.02654 7.99998" stroke="#00AD0C" stroke-width="1.16667" stroke-linecap="round" stroke-linejoin="round"/>
</svg>
